<svg width="504" height="276" viewBox="0 0 504 276" fill="none" xmlns="http://www.w3.org/2000/svg">
<path d="M83.7451 214V181.1H10.8132V163.385L87.8863 51.8014H107.442V161.084H131.139V181.1H107.442V214H83.7451ZM83.7451 161.084V89.0725L34.5103 161.084H83.7451Z" fill="#2565D0"/>
<path d="M449.745 214V181.1H376.813V163.385L453.886 51.8014H473.442V161.084H497.139V181.1H473.442V214H449.745ZM449.745 161.084V89.0725L400.51 161.084H449.745Z" fill="#2565D0"/>
<path d="M329.439 118.429L297.126 100.804C296.465 100.437 295.657 100.437 295.033 100.804L286.514 105.431V67.5C286.514 66.6922 286.074 65.9579 285.376 65.554L253.064 47.929C252.403 47.5618 251.595 47.5618 250.971 47.929L218.658 65.554C217.961 65.9579 217.52 66.6922 217.52 67.5V105.431L209.038 100.804C208.377 100.437 207.569 100.437 206.945 100.804L174.632 118.429C173.935 118.833 173.494 119.567 173.494 120.375V185C173.494 185.808 173.935 186.542 174.632 186.946L206.945 204.571C207.606 204.938 208.414 204.938 209.038 204.571L217.52 199.945V208.5C217.52 209.308 217.961 210.042 218.658 210.446L250.971 228.071C251.632 228.438 252.439 228.438 253.064 228.071L285.376 210.446C286.074 210.042 286.514 209.308 286.514 208.5V199.945L294.996 204.571C295.657 204.938 296.465 204.938 297.089 204.571L329.402 186.946C330.1 186.542 330.54 185.808 330.54 185V120.375C330.577 119.567 330.136 118.833 329.439 118.429ZM296.061 105.247L323.784 120.375L296.061 135.503L268.339 120.375L296.061 105.247ZM251.999 179.566L224.276 164.438L251.999 149.309L279.721 164.438L251.999 179.566ZM242.452 120.375C242.452 119.567 242.011 118.833 241.314 118.429L221.889 107.854V71.2086L249.796 86.4469V145.527L242.452 149.53V120.375ZM282.108 107.854L262.684 118.429C261.986 118.833 261.546 119.567 261.546 120.375V149.493L254.202 145.491V86.4469L282.108 71.2086V107.854ZM285.376 162.491L265.952 151.916V124.084L293.858 139.322V198.916L286.514 194.914V164.438C286.514 163.63 286.074 162.895 285.376 162.491ZM251.999 52.3719L279.721 67.5L251.999 82.6282L224.276 67.5L251.999 52.3719ZM207.936 105.247L235.659 120.375L207.936 135.503L180.214 120.375L207.936 105.247ZM177.827 124.084L205.733 139.322V198.916L177.827 183.678V124.084ZM210.139 198.916V139.322L238.046 124.084V151.916L218.621 162.491C217.924 162.895 217.483 163.63 217.483 164.438V194.914L210.139 198.916ZM221.889 196.199V168.146L249.796 183.384V222.416L221.889 207.178V196.199ZM282.108 207.178L254.202 222.416V183.384L282.108 168.146V196.199V207.178ZM298.264 198.916V139.322L326.171 124.084V183.678L298.264 198.916Z" fill="#2565D0"/>
</svg>
