<?xml version="1.0" standalone="no"?>
<!DOCTYPE svg PUBLIC "-//W3C//DTD SVG 20010904//EN"
 "http://www.w3.org/TR/2001/REC-SVG-20010904/DTD/svg10.dtd">
<svg version="1.0" xmlns="http://www.w3.org/2000/svg"
 width="700.000000pt" height="700.000000pt" viewBox="0 0 700.000000 700.000000"
 preserveAspectRatio="xMidYMid meet">
<metadata>
Created by potrace 1.14, written by Peter Selinger 2001-2017
</metadata>
<g transform="translate(0.000000,700.000000) scale(0.100000,-0.100000)"
fill="#000000" stroke="none">
<path d="M3315 6994 c-369 -28 -624 -77 -932 -179 -1185 -394 -2067 -1398
-2312 -2630 -49 -242 -64 -411 -65 -680 0 -253 10 -381 50 -612 158 -927 709
-1779 1487 -2295 483 -321 977 -503 1557 -575 200 -24 610 -24 805 1 421 52
772 156 1140 336 587 287 1075 727 1427 1287 98 157 240 445 303 613 254 684
292 1413 110 2129 -99 393 -294 810 -537 1148 -580 809 -1461 1325 -2453 1438
-129 15 -484 26 -580 19z m129 -2121 l638 -344 367 197 c201 108 371 197 378
197 13 0 1061 -562 1068 -572 2 -4 -237 -137 -531 -296 l-536 -288 -31 16
c-18 8 -144 76 -282 150 l-250 136 -3 91 -3 92 33 -20 c18 -11 95 -54 170 -96
l138 -75 107 58 108 58 3 286 c1 158 -1 287 -4 287 -13 0 -537 -294 -553 -310
-9 -9 -357 -200 -774 -424 l-758 -408 -757 407 c-416 224 -760 410 -764 414
-4 3 336 191 755 417 l762 411 40 -20 c22 -11 327 -175 679 -364z m2385 -1232
c53 -28 70 -41 60 -47 -8 -5 -249 -136 -537 -291 l-524 -282 -283 152 c-242
129 -284 155 -285 175 0 12 -2 22 -4 22 -2 0 -346 -184 -764 -409 l-760 -410
-744 400 c-409 221 -753 406 -765 413 -21 10 -14 15 87 69 l108 58 652 -351
c358 -193 657 -350 664 -348 7 2 328 173 714 381 l701 377 337 -181 337 -182
41 21 c23 11 228 122 456 246 228 123 420 225 425 225 6 1 43 -16 84 -38z"/>
<path d="M2202 4726 c-404 -225 -519 -293 -510 -302 18 -16 703 -394 715 -394
11 0 303 156 315 168 5 5 7 191 6 413 l-3 406 -523 -291z"/>
</g>
</svg>
